<?xml version="1.0" standalone="no"?>
<!DOCTYPE svg PUBLIC "-//W3C//DTD SVG 20010904//EN"
 "http://www.w3.org/TR/2001/REC-SVG-20010904/DTD/svg10.dtd">
<svg version="1.0" xmlns="http://www.w3.org/2000/svg"
 width="401.000000pt" height="401.000000pt" viewBox="0 0 401.000000 401.000000"
 preserveAspectRatio="xMidYMid meet">
<metadata>
Created by potrace 1.14, written by Peter Selinger 2001-2017
</metadata>
<g transform="translate(0.000000,401.000000) scale(0.100000,-0.100000)"
fill="#000000" stroke="none">
<path d="M2830 3534 c-59 -27 -99 -66 -127 -123 -17 -34 -18 -104 -19 -1381
-1 -1009 2 -1357 11 -1392 15 -61 54 -111 113 -145 40 -24 58 -28 122 -28 117
0 204 55 240 151 18 49 19 96 17 1405 -2 1321 -2 1355 -22 1393 -61 124 -212
177 -335 120z"/>
<path d="M1937 2688 c-88 -16 -163 -79 -190 -160 -13 -41 -15 -161 -15 -954 0
-754 3 -914 14 -949 33 -96 131 -165 233 -165 101 1 178 45 228 128 l28 47 1
933 c1 858 -1 935 -16 970 -26 58 -74 107 -127 130 -62 26 -97 30 -156 20z"/>
<path d="M949 1816 c-74 -26 -147 -102 -159 -166 -3 -14 -5 -248 -5 -520 0
-491 0 -495 22 -536 27 -50 72 -90 132 -117 35 -15 58 -18 110 -14 78 6 120
25 172 79 67 69 67 74 66 618 l-2 485 -24 45 c-25 48 -69 93 -114 116 -38 20
-153 26 -198 10z"/>
</g>
</svg>
